<svg width="103" height="97" viewBox="0 0 103 97" fill="none" xmlns="http://www.w3.org/2000/svg">
<ellipse cx="4.62103" cy="4.38682" rx="4.62103" ry="4.38682" transform="matrix(0.973447 0.228912 -0.25577 0.966738 21.1575 0.0917358)" fill="#EA686D" fill-opacity="0.1"/>
<ellipse cx="4.62103" cy="4.38682" rx="4.62103" ry="4.38682" transform="matrix(0.973447 0.228912 -0.25577 0.966738 35.5521 3.47668)" fill="#EA686D" fill-opacity="0.1"/>
<ellipse cx="4.62103" cy="4.38682" rx="4.62103" ry="4.38682" transform="matrix(0.973447 0.228912 -0.25577 0.966738 49.9467 6.86169)" fill="#EA686D" fill-opacity="0.1"/>
<ellipse cx="4.62103" cy="4.38682" rx="4.62103" ry="4.38682" transform="matrix(0.973447 0.228912 -0.25577 0.966738 17.4174 14.2281)" fill="#EA686D" fill-opacity="0.1"/>
<ellipse cx="4.62103" cy="4.38682" rx="4.62103" ry="4.38682" transform="matrix(0.973447 0.228912 -0.25577 0.966738 31.812 17.613)" fill="#EA686D" fill-opacity="0.1"/>
<ellipse cx="4.62103" cy="4.38682" rx="4.62103" ry="4.38682" transform="matrix(0.973447 0.228912 -0.25577 0.966738 46.2067 20.998)" fill="#EA686D" fill-opacity="0.1"/>
<ellipse cx="4.62103" cy="4.38682" rx="4.62103" ry="4.38682" transform="matrix(0.973447 0.228912 -0.25577 0.966738 13.6772 28.3644)" fill="#EA686D" fill-opacity="0.1"/>
<ellipse cx="4.62103" cy="4.38682" rx="4.62103" ry="4.38682" transform="matrix(0.973447 0.228912 -0.25577 0.966738 28.072 31.7494)" fill="#EA686D" fill-opacity="0.1"/>
<ellipse cx="4.62103" cy="4.38682" rx="4.62103" ry="4.38682" transform="matrix(0.973447 0.228912 -0.25577 0.966738 42.4667 35.1344)" fill="#EA686D" fill-opacity="0.1"/>
<ellipse cx="4.62103" cy="4.38682" rx="4.62103" ry="4.38682" transform="matrix(0.973447 0.228912 -0.25577 0.966738 64.3413 10.2467)" fill="#EA686D" fill-opacity="0.1"/>
<ellipse cx="4.62103" cy="4.38682" rx="4.62103" ry="4.38682" transform="matrix(0.973447 0.228912 -0.25577 0.966738 78.7361 13.6317)" fill="#EA686D" fill-opacity="0.1"/>
<ellipse cx="4.62103" cy="4.38682" rx="4.62103" ry="4.38682" transform="matrix(0.973447 0.228912 -0.25577 0.966738 93.1306 17.0166)" fill="#EA686D" fill-opacity="0.1"/>
<ellipse cx="4.62103" cy="4.38682" rx="4.62103" ry="4.38682" transform="matrix(0.973447 0.228912 -0.25577 0.966738 60.6014 24.383)" fill="#EA686D" fill-opacity="0.1"/>
<ellipse cx="4.62103" cy="4.38682" rx="4.62103" ry="4.38682" transform="matrix(0.973447 0.228912 -0.25577 0.966738 74.9958 27.768)" fill="#EA686D" fill-opacity="0.1"/>
<ellipse cx="4.62103" cy="4.38682" rx="4.62103" ry="4.38682" transform="matrix(0.973447 0.228912 -0.25577 0.966738 89.3906 31.153)" fill="#EA686D" fill-opacity="0.1"/>
<ellipse cx="4.62103" cy="4.38682" rx="4.62103" ry="4.38682" transform="matrix(0.973447 0.228912 -0.25577 0.966738 56.8612 38.5193)" fill="#EA686D" fill-opacity="0.1"/>
<ellipse cx="4.62103" cy="4.38682" rx="4.62103" ry="4.38682" transform="matrix(0.973447 0.228912 -0.25577 0.966738 71.2559 41.9043)" fill="#EA686D" fill-opacity="0.1"/>
<ellipse cx="4.62103" cy="4.38682" rx="4.62103" ry="4.38682" transform="matrix(0.973447 0.228912 -0.25577 0.966738 85.6506 45.2893)" fill="#EA686D" fill-opacity="0.1"/>
<ellipse cx="4.62103" cy="4.38682" rx="4.62103" ry="4.38682" transform="matrix(0.973447 0.228912 -0.25577 0.966738 10.386 40.8044)" fill="#EA686D" fill-opacity="0.1"/>
<ellipse cx="4.62103" cy="4.38682" rx="4.62103" ry="4.38682" transform="matrix(0.973447 0.228912 -0.25577 0.966738 24.7808 44.1893)" fill="#EA686D" fill-opacity="0.1"/>
<ellipse cx="4.62103" cy="4.38682" rx="4.62103" ry="4.38682" transform="matrix(0.973447 0.228912 -0.25577 0.966738 39.1753 47.5743)" fill="#EA686D" fill-opacity="0.1"/>
<ellipse cx="4.62103" cy="4.38682" rx="4.62103" ry="4.38682" transform="matrix(0.973447 0.228912 -0.25577 0.966738 6.64606 54.9407)" fill="#EA686D" fill-opacity="0.1"/>
<ellipse cx="4.62103" cy="4.38682" rx="4.62103" ry="4.38682" transform="matrix(0.973447 0.228912 -0.25577 0.966738 21.0406 58.3257)" fill="#EA686D" fill-opacity="0.1"/>
<ellipse cx="4.62103" cy="4.38682" rx="4.62103" ry="4.38682" transform="matrix(0.973447 0.228912 -0.25577 0.966738 35.4353 61.7107)" fill="#EA686D" fill-opacity="0.1"/>
<ellipse cx="4.62103" cy="4.38682" rx="4.62103" ry="4.38682" transform="matrix(0.973447 0.228912 -0.25577 0.966738 2.90588 69.077)" fill="#EA686D" fill-opacity="0.1"/>
<ellipse cx="4.62103" cy="4.38682" rx="4.62103" ry="4.38682" transform="matrix(0.973447 0.228912 -0.25577 0.966738 17.3006 72.462)" fill="#EA686D" fill-opacity="0.1"/>
<ellipse cx="4.62103" cy="4.38682" rx="4.62103" ry="4.38682" transform="matrix(0.973447 0.228912 -0.25577 0.966738 31.6953 75.847)" fill="#EA686D" fill-opacity="0.1"/>
<ellipse cx="4.62103" cy="4.38682" rx="4.62103" ry="4.38682" transform="matrix(0.973447 0.228912 -0.25577 0.966738 53.57 50.9593)" fill="#EA686D" fill-opacity="0.1"/>
<ellipse cx="4.62103" cy="4.38682" rx="4.62103" ry="4.38682" transform="matrix(0.973447 0.228912 -0.25577 0.966738 67.9647 54.3443)" fill="#EA686D" fill-opacity="0.1"/>
<ellipse cx="4.62103" cy="4.38682" rx="4.62103" ry="4.38682" transform="matrix(0.973447 0.228912 -0.25577 0.966738 82.3593 57.7293)" fill="#EA686D" fill-opacity="0.1"/>
<ellipse cx="4.62103" cy="4.38682" rx="4.62103" ry="4.38682" transform="matrix(0.973447 0.228912 -0.25577 0.966738 49.83 65.0956)" fill="#EA686D" fill-opacity="0.1"/>
<ellipse cx="4.62103" cy="4.38682" rx="4.62103" ry="4.38682" transform="matrix(0.973447 0.228912 -0.25577 0.966738 64.2246 68.4806)" fill="#EA686D" fill-opacity="0.1"/>
<ellipse cx="4.62103" cy="4.38682" rx="4.62103" ry="4.38682" transform="matrix(0.973447 0.228912 -0.25577 0.966738 78.6193 71.8656)" fill="#EA686D" fill-opacity="0.1"/>
<ellipse cx="4.62103" cy="4.38682" rx="4.62103" ry="4.38682" transform="matrix(0.973447 0.228912 -0.25577 0.966738 46.0898 79.232)" fill="#EA686D" fill-opacity="0.1"/>
<ellipse cx="4.62103" cy="4.38682" rx="4.62103" ry="4.38682" transform="matrix(0.973447 0.228912 -0.25577 0.966738 60.4846 82.617)" fill="#EA686D" fill-opacity="0.1"/>
<ellipse cx="4.62103" cy="4.38682" rx="4.62103" ry="4.38682" transform="matrix(0.973447 0.228912 -0.25577 0.966738 74.8793 86.002)" fill="#EA686D" fill-opacity="0.1"/>
</svg>
